<svg width="400" height="370" viewBox="0 0 400 370" fill="none" xmlns="http://www.w3.org/2000/svg">
<path fill-rule="evenodd" clip-rule="evenodd" d="M445 -23H-45V379.541H83.9509C78.1842 361.775 75 342.282 75 321.835C75 269.887 95.552 224.101 126.79 197.138C117.341 190.702 109.38 182.882 103.383 174.066L67 181.571L65.5501 176.786L100.545 169.567C98.9244 166.788 97.4932 163.923 96.2645 160.981L55 157.644L55.59 152.678L94.3411 155.813C93.4446 153.075 92.7204 150.281 92.1783 147.438L71 144.442L72.0171 139.547L91.4038 142.289C91.1365 139.873 91 137.426 91 134.954C91 116.924 98.2607 100.265 110.547 86.7848L91.052 39.6997L157.541 58.4399C168.148 55.3608 179.582 53.6832 191.5 53.6832C200.75 53.6832 209.708 54.6938 218.215 56.5859L292.763 35.5743L271.837 86.1158C284.496 99.7117 292 116.624 292 134.954C292 137.225 291.885 139.474 291.659 141.697L321.55 135.532L323 140.317L290.916 146.935C290.41 149.704 289.731 152.428 288.889 155.098L335.617 152.658L335.999 157.644L287.057 160.199C286.746 160.969 286.422 161.733 286.084 162.492L323.815 166.737L323 171.67L283.75 167.254C277.617 178.692 268.326 188.766 256.766 196.757C288.253 223.668 309 269.642 309 321.835C309 342.282 305.816 361.775 300.049 379.541H445V-23ZM298.342 384.541H445H450V379.541V-23V-28H445H-45H-50V-23V379.541V384.541H-45H85.6581C104.167 436.162 144.823 472 192 472C239.177 472 279.833 436.162 298.342 384.541Z" fill="#C4C4C4"/>
</svg>
