<svg width="210" height="70" viewBox="0 0 210 70" fill="none" xmlns="http://www.w3.org/2000/svg">
<rect x="2.5" y="2.5" width="205" height="65" rx="32.5" fill="#BDE8CE"/>
<rect x="2.5" y="2.5" width="205" height="65" rx="32.5" fill="url(#paint0_linear)"/>
<rect x="2.5" y="2.5" width="205" height="65" rx="32.5" fill="url(#paint1_linear)"/>
<rect x="2.5" y="2.5" width="205" height="65" rx="32.5" stroke="#8CCDA6" stroke-width="5"/>
<path d="M76.7266 36.0283C74.9577 35.5199 73.6686 34.8968 72.8594 34.1592C72.0573 33.4144 71.6562 32.4977 71.6562 31.4092C71.6562 30.1774 72.1468 29.1605 73.1279 28.3584C74.1162 27.5492 75.3981 27.1445 76.9736 27.1445C78.0479 27.1445 79.0039 27.3522 79.8418 27.7676C80.6868 28.1829 81.3385 28.7559 81.7969 29.4863C82.2624 30.2168 82.4951 31.0153 82.4951 31.8818H80.4219C80.4219 30.9365 80.1211 30.1953 79.5195 29.6582C78.918 29.1139 78.0693 28.8418 76.9736 28.8418C75.9567 28.8418 75.1618 29.0674 74.5889 29.5186C74.0231 29.9626 73.7402 30.582 73.7402 31.377C73.7402 32.0143 74.0088 32.555 74.5459 32.999C75.0902 33.4359 76.0104 33.8369 77.3066 34.2021C78.61 34.5674 79.627 34.972 80.3574 35.416C81.0951 35.8529 81.6393 36.3649 81.9902 36.9521C82.3483 37.5394 82.5273 38.2305 82.5273 39.0254C82.5273 40.293 82.0332 41.3099 81.0449 42.0762C80.0566 42.8353 78.7354 43.2148 77.0811 43.2148C76.0068 43.2148 75.0042 43.0107 74.0732 42.6025C73.1423 42.1872 72.4225 41.6214 71.9141 40.9053C71.4128 40.1891 71.1621 39.3763 71.1621 38.4668H73.2354C73.2354 39.4121 73.5827 40.1605 74.2773 40.7119C74.9792 41.2562 75.9137 41.5283 77.0811 41.5283C78.1696 41.5283 79.0039 41.3063 79.584 40.8623C80.1641 40.4183 80.4541 39.8132 80.4541 39.0469C80.4541 38.2806 80.1855 37.6898 79.6484 37.2744C79.1113 36.8519 78.1374 36.4365 76.7266 36.0283ZM92.0449 41.8506C91.2715 42.7601 90.1364 43.2148 88.6396 43.2148C87.4007 43.2148 86.4554 42.8568 85.8037 42.1406C85.1592 41.4173 84.8333 40.3503 84.8262 38.9395V31.377H86.8135V38.8857C86.8135 40.6475 87.5296 41.5283 88.9619 41.5283C90.4801 41.5283 91.4899 40.9626 91.9912 39.8311V31.377H93.9785V43H92.0879L92.0449 41.8506ZM106.848 37.3174C106.848 39.0934 106.439 40.5221 105.623 41.6035C104.807 42.6777 103.711 43.2148 102.336 43.2148C100.868 43.2148 99.7327 42.6956 98.9307 41.6572L98.834 43H97.0078V26.5H98.9951V32.6553C99.7972 31.6598 100.904 31.1621 102.314 31.1621C103.725 31.1621 104.832 31.6956 105.634 32.7627C106.443 33.8298 106.848 35.2907 106.848 37.1455V37.3174ZM104.86 37.0918C104.86 35.7383 104.599 34.6927 104.076 33.9551C103.553 33.2174 102.801 32.8486 101.82 32.8486C100.51 32.8486 99.568 33.4574 98.9951 34.6748V39.7021C99.6038 40.9196 100.553 41.5283 101.842 41.5283C102.794 41.5283 103.535 41.1595 104.065 40.4219C104.595 39.6842 104.86 38.5742 104.86 37.0918ZM111.23 31.377L111.284 32.666C112.136 31.6634 113.286 31.1621 114.732 31.1621C116.358 31.1621 117.465 31.7852 118.052 33.0312C118.438 32.4727 118.94 32.0215 119.556 31.6777C120.179 31.334 120.913 31.1621 121.758 31.1621C124.307 31.1621 125.604 32.512 125.646 35.2119V43H123.659V35.3301C123.659 34.4993 123.469 33.8799 123.09 33.4717C122.71 33.0563 122.073 32.8486 121.178 32.8486C120.44 32.8486 119.828 33.0706 119.341 33.5146C118.854 33.9515 118.571 34.5423 118.492 35.2871V43H116.494V35.3838C116.494 33.6937 115.667 32.8486 114.013 32.8486C112.709 32.8486 111.818 33.4036 111.338 34.5137V43H109.351V31.377H111.23ZM130.813 43H128.826V31.377H130.813V43ZM128.665 28.2939C128.665 27.9717 128.762 27.6995 128.955 27.4775C129.156 27.2555 129.449 27.1445 129.836 27.1445C130.223 27.1445 130.516 27.2555 130.717 27.4775C130.917 27.6995 131.018 27.9717 131.018 28.2939C131.018 28.6162 130.917 28.8848 130.717 29.0996C130.516 29.3145 130.223 29.4219 129.836 29.4219C129.449 29.4219 129.156 29.3145 128.955 29.0996C128.762 28.8848 128.665 28.6162 128.665 28.2939ZM136.7 28.5625V31.377H138.87V32.9131H136.7V40.1211C136.7 40.5866 136.797 40.9375 136.99 41.1738C137.184 41.403 137.513 41.5176 137.979 41.5176C138.208 41.5176 138.523 41.4746 138.924 41.3887V43C138.401 43.1432 137.893 43.2148 137.398 43.2148C136.51 43.2148 135.841 42.9463 135.39 42.4092C134.938 41.8721 134.713 41.1094 134.713 40.1211V32.9131H132.597V31.377H134.713V28.5625H136.7Z" fill="#60A07A"/>
<defs>
<linearGradient id="paint0_linear" x1="105" y1="70" x2="105" y2="35" gradientUnits="userSpaceOnUse">
<stop stop-color="white"/>
<stop offset="1" stop-color="white" stop-opacity="0"/>
</linearGradient>
<linearGradient id="paint1_linear" x1="105" y1="0" x2="105" y2="35" gradientUnits="userSpaceOnUse">
<stop stop-color="white"/>
<stop offset="1" stop-color="white" stop-opacity="0"/>
</linearGradient>
</defs>
</svg>
